<svg xmlns="http://www.w3.org/2000/svg" width="56" height="56" viewBox="0 0 56 56"><defs><mask id="yi8rb" width="2" height="2" x="-1" y="-1"><path fill="#fff" d="M3 1h50v50H3z"/><path d="M3 15C3 7.268 9.268 1 17 1h22c7.732 0 14 6.268 14 14v22c0 7.732-6.268 14-14 14H17C9.268 51 3 44.732 3 37z"/></mask><filter id="yi8ra" width="78" height="80" x="-11" y="-13" filterUnits="userSpaceOnUse"><feOffset dy="2" in="SourceGraphic" result="FeOffset1146Out"/><feGaussianBlur in="FeOffset1146Out" result="FeGaussianBlur1147Out" stdDeviation="1.6 1.6"/></filter><linearGradient id="yi8rc" x1="3" x2="53" y1="1" y2="51" gradientUnits="userSpaceOnUse"><stop offset="0" stop-color="#9c09db"/><stop offset="1" stop-color="#1c0fd7"/></linearGradient></defs><g><g><g><g filter="url(#yi8ra)"><path fill="none" d="M3 15C3 7.268 9.268 1 17 1h22c7.732 0 14 6.268 14 14v22c0 7.732-6.268 14-14 14H17C9.268 51 3 44.732 3 37z" mask="url(&quot;#yi8rb&quot;)"/><path fill="#240880" fill-opacity=".15" d="M3 15C3 7.268 9.268 1 17 1h22c7.732 0 14 6.268 14 14v22c0 7.732-6.268 14-14 14H17C9.268 51 3 44.732 3 37z"/></g><path fill="url(#yi8rc)" d="M3 15C3 7.268 9.268 1 17 1h22c7.732 0 14 6.268 14 14v22c0 7.732-6.268 14-14 14H17C9.268 51 3 44.732 3 37z"/></g><g><g transform="rotate(90 29.5 26)"><path fill="#fff" d="M30.432 18.023l8.919 14.879a1.05 1.05 0 0 1-.384 1.452 1.097 1.097 0 0 1-.548.146H20.58a1.07 1.07 0 0 1-1.081-1.06c0-.19.052-.375.15-.538l8.918-14.879a1.092 1.092 0 0 1 1.864 0z"/></g></g></g></g></svg>