<svg xmlns="http://www.w3.org/2000/svg" width="20" height="17" viewBox="0 0 20 17"><g><g opacity=".5"><path fill="#540cfa" d="M19.68 16.63c-.979-1.17-.741-2.758-.509-3.616.22-.535.342-1.105.342-1.701 0-1.064-.379-2.054-1.026-2.883-.63 3.87-4.514 6.867-9.237 6.94 1.085.755 2.476 1.21 3.994 1.21a7.17 7.17 0 0 0 3.05-.67c1.387.92 3.112 1.045 3.112 1.045.746 0 .274-.326.274-.326z"/></g><g opacity=".5"><path fill="#540cfa" d="M17.77 7.33c0-3.997-3.904-7.25-8.702-7.25C4.27.08.365 3.333.365 7.33c0 .782.157 1.564.466 2.322.36 1.307.715 3.653-.651 5.467.464-.049 2.547-.325 4.231-1.44l.192-.126.208.097c1.297.609 2.769.932 4.257.932 4.798 0 8.703-3.254 8.703-7.251z"/></g></g></svg>