<svg xmlns="http://www.w3.org/2000/svg" width="56" height="56" viewBox="0 0 56 56"><defs><mask id="w92vb" width="2" height="2" x="-1" y="-1"><path fill="#fff" d="M3 1h50v50H3z"/><path d="M3 15C3 7.268 9.268 1 17 1h22c7.732 0 14 6.268 14 14v22c0 7.732-6.268 14-14 14H17C9.268 51 3 44.732 3 37z"/></mask><filter id="w92va" width="78" height="80" x="-11" y="-13" filterUnits="userSpaceOnUse"><feOffset dy="2" in="SourceGraphic" result="FeOffset1178Out"/><feGaussianBlur in="FeOffset1178Out" result="FeGaussianBlur1179Out" stdDeviation="1.6 1.6"/></filter><linearGradient id="w92vc" x1="3" x2="53" y1="1" y2="51" gradientUnits="userSpaceOnUse"><stop offset="0" stop-color="#f2c314"/><stop offset="1" stop-color="#fc3832"/></linearGradient></defs><g><g><g><g filter="url(#w92va)"><path fill="none" d="M3 15C3 7.268 9.268 1 17 1h22c7.732 0 14 6.268 14 14v22c0 7.732-6.268 14-14 14H17C9.268 51 3 44.732 3 37z" mask="url(&quot;#w92vb&quot;)"/><path fill="#802000" fill-opacity=".15" d="M3 15C3 7.268 9.268 1 17 1h22c7.732 0 14 6.268 14 14v22c0 7.732-6.268 14-14 14H17C9.268 51 3 44.732 3 37z"/></g><path fill="url(#w92vc)" d="M3 15C3 7.268 9.268 1 17 1h22c7.732 0 14 6.268 14 14v22c0 7.732-6.268 14-14 14H17C9.268 51 3 44.732 3 37z"/></g><g><g><path fill="#fff" d="M28.005 16.756c.824 0 1.491-.647 1.491-1.445s-.667-1.444-1.491-1.444c-.824 0-1.491.646-1.491 1.444 0 .798.667 1.445 1.491 1.445zm0 21.377c.824 0 1.491-.646 1.491-1.444 0-.798-.667-1.445-1.491-1.445-.824 0-1.491.647-1.491 1.445s.667 1.444 1.491 1.444zm-8.627-7.222c.821 0 1.487-.647 1.487-1.444 0-.798-.666-1.445-1.487-1.445-.82 0-1.486.647-1.486 1.445 0 .797.665 1.444 1.486 1.444zm0-6.933c.821 0 1.487-.647 1.487-1.445 0-.797-.666-1.444-1.487-1.444-.82 0-1.486.647-1.486 1.444 0 .798.665 1.445 1.486 1.445zm17.244 6.933c.82 0 1.486-.647 1.486-1.444 0-.798-.665-1.445-1.486-1.445s-1.487.647-1.487 1.445c0 .797.666 1.444 1.487 1.444zm0-6.933c.82 0 1.486-.647 1.486-1.445 0-.797-.665-1.444-1.486-1.444s-1.487.647-1.487 1.444c0 .798.666 1.445 1.487 1.445zm-8.617 6.933c.824 0 1.491-.647 1.491-1.444 0-.798-.667-1.445-1.491-1.445-.824 0-1.491.647-1.491 1.445 0 .797.667 1.444 1.491 1.444zm0-6.933c.824 0 1.491-.647 1.491-1.445 0-.797-.667-1.444-1.491-1.444-.824 0-1.491.647-1.491 1.444 0 .798.667 1.445 1.491 1.445zm-1.368 3.594A2.415 2.415 0 0 1 28 27.156c.507 0 .977.154 1.363.416L31.559 26l-2.196-1.572a2.415 2.415 0 0 1-1.363.416c-.507 0-.977-.154-1.363-.416L24.441 26zm8-6.313l-5.28-4.05a2.403 2.403 0 0 1-.911.373v2.68c1.1.204 1.932 1.143 1.932 2.271 0 .468-.143.903-.388 1.267l2.32 1.662 2.322-1.662a2.254 2.254 0 0 1 .005-2.541zm.629 6.313c.27-.183.583-.314.92-.376v-2.392a2.415 2.415 0 0 1-.92-.376L33.063 26zM21.368 23.8l2.321 1.662L26.01 23.8a2.254 2.254 0 0 1-.388-1.267c0-1.128.832-2.067 1.932-2.27v-2.681a2.403 2.403 0 0 1-.912-.373l-5.28 4.05a2.254 2.254 0 0 1 .006 2.54zm-.624 3.772L22.947 26l-2.203-1.572c-.27.183-.583.314-.92.376v2.392c.337.062.65.193.92.376zm9.24 7.843c.25.365.394.803.394 1.274C30.378 37.965 29.314 39 28 39s-2.378-1.035-2.378-2.311c0-.471.145-.91.394-1.274l-5.28-4.05c-.385.26-.853.413-1.358.413-1.313 0-2.378-1.035-2.378-2.311 0-1.129.832-2.068 1.932-2.27v-2.393C17.832 24.6 17 23.662 17 22.534c0-1.277 1.065-2.312 2.378-2.312.505 0 .973.153 1.358.414l5.28-4.05a2.254 2.254 0 0 1-.394-1.275C25.622 14.035 26.686 13 28 13s2.378 1.035 2.378 2.311c0 .471-.145.91-.394 1.274l5.28 4.05c.385-.26.853-.413 1.358-.413 1.313 0 2.378 1.035 2.378 2.311 0 1.129-.832 2.068-1.932 2.27v2.393c1.1.203 1.932 1.142 1.932 2.27 0 1.277-1.065 2.312-2.378 2.312-.505 0-.973-.153-1.358-.414zm-1.538-.997c.334.062.643.191.912.373l5.28-4.05a2.254 2.254 0 0 1-.006-2.54l-2.321-1.663L29.99 28.2c.245.364.388.799.388 1.267 0 1.128-.832 2.067-1.932 2.27zm-.892 0v-2.68c-1.1-.204-1.932-1.143-1.932-2.271 0-.468.143-.903.388-1.267l-2.32-1.662-2.322 1.662a2.254 2.254 0 0 1-.005 2.541l5.28 4.05c.268-.182.577-.311.911-.373z"/></g></g></g></g></svg>