<svg xmlns="http://www.w3.org/2000/svg" width="56" height="56" viewBox="0 0 56 56"><defs><mask id="u114b" width="2" height="2" x="-1" y="-1"><path fill="#fff" d="M3 1h50v50H3z"/><path d="M3 15C3 7.268 9.268 1 17 1h22c7.732 0 14 6.268 14 14v22c0 7.732-6.268 14-14 14H17C9.268 51 3 44.732 3 37z"/></mask><filter id="u114a" width="78" height="80" x="-11" y="-13" filterUnits="userSpaceOnUse"><feOffset dy="2" in="SourceGraphic" result="FeOffset1210Out"/><feGaussianBlur in="FeOffset1210Out" result="FeGaussianBlur1211Out" stdDeviation="1.6 1.6"/></filter><linearGradient id="u114c" x1="3" x2="53" y1="1" y2="51" gradientUnits="userSpaceOnUse"><stop offset="0" stop-color="#32fbfc"/><stop offset="1" stop-color="#3214f2"/></linearGradient></defs><g><g><g><g filter="url(#u114a)"><path fill="none" d="M3 15C3 7.268 9.268 1 17 1h22c7.732 0 14 6.268 14 14v22c0 7.732-6.268 14-14 14H17C9.268 51 3 44.732 3 37z" mask="url(&quot;#u114b&quot;)"/><path fill="#0826a8" fill-opacity=".15" d="M3 15C3 7.268 9.268 1 17 1h22c7.732 0 14 6.268 14 14v22c0 7.732-6.268 14-14 14H17C9.268 51 3 44.732 3 37z"/></g><path fill="url(#u114c)" d="M3 15C3 7.268 9.268 1 17 1h22c7.732 0 14 6.268 14 14v22c0 7.732-6.268 14-14 14H17C9.268 51 3 44.732 3 37z"/></g><g><g><path fill="#fff" d="M42 16.865a4.865 4.865 0 1 0-9.73 0 4.865 4.865 0 0 0 9.73 0zm-20.108-1.622A3.892 3.892 0 0 0 18 19.135v12.973A3.892 3.892 0 0 0 21.892 36h12.973a3.892 3.892 0 0 0 3.892-3.892v-8.627a6.808 6.808 0 0 1-1.298.187v8.44a2.595 2.595 0 0 1-2.594 2.595H21.892a2.595 2.595 0 0 1-2.595-2.595V19.135a2.595 2.595 0 0 1 2.595-2.594h8.44c.02-.445.084-.88.187-1.298z"/></g></g></g></g></svg>