<svg xmlns="http://www.w3.org/2000/svg" width="415" height="415" viewBox="0 0 415 415"><defs><mask id="mbsyb" width="2" height="2" x="-1" y="-1"><path fill="#fff" d="M17 6h392v392H17z"/><path d="M63 92c0-22.091 17.909-40 40-40h220c22.091 0 40 17.909 40 40v220c0 22.091-17.909 40-40 40H103c-22.091 0-40-17.909-40-40z"/></mask><filter id="mbsya" width="444" height="452" x="-9" y="-20" filterUnits="userSpaceOnUse"><feOffset dy="8" in="SourceGraphic" result="FeOffset1065Out"/><feGaussianBlur in="FeOffset1065Out" result="FeGaussianBlur1066Out" stdDeviation="6.4 6.4"/></filter><linearGradient id="mbsyc" x1="63" x2="363" y1="52" y2="352" gradientUnits="userSpaceOnUse"><stop offset="0" stop-color="#32fbfc"/><stop offset="1" stop-color="#3214f2"/></linearGradient></defs><g><g opacity=".9" transform="rotate(45 213 202)"><g filter="url(#mbsya)"><path fill="none" d="M63 92c0-22.091 17.909-40 40-40h220c22.091 0 40 17.909 40 40v220c0 22.091-17.909 40-40 40H103c-22.091 0-40-17.909-40-40z" mask="url(&quot;#mbsyb&quot;)"/><path fill-opacity=".1" d="M63 92c0-22.091 17.909-40 40-40h220c22.091 0 40 17.909 40 40v220c0 22.091-17.909 40-40 40H103c-22.091 0-40-17.909-40-40z"/></g><path fill="url(#mbsyc)" d="M63 92c0-22.091 17.909-40 40-40h220c22.091 0 40 17.909 40 40v220c0 22.091-17.909 40-40 40H103c-22.091 0-40-17.909-40-40z"/></g></g></svg>