<svg xmlns="http://www.w3.org/2000/svg" width="840" height="841" viewBox="0 0 840 841"><defs><mask id="7fnvb" width="2" height="2" x="-1" y="-1"><path fill="#fff" d="M40 30h772v772H40z"/><path d="M126.68 155.68c0-22.091 17.909-40 40-40h520c22.091 0 40 17.909 40 40v520c0 22.091-17.909 40-40 40h-520c-22.091 0-40-17.909-40-40z"/></mask><filter id="7fnva" width="824" height="832" x="14" y="4" filterUnits="userSpaceOnUse"><feOffset dy="8" in="SourceGraphic" result="FeOffset1023Out"/><feGaussianBlur in="FeOffset1023Out" result="FeGaussianBlur1024Out" stdDeviation="6.4 6.4"/></filter><linearGradient id="7fnvc" x1="126.68" x2="726.68" y1="115.68" y2="715.68" gradientUnits="userSpaceOnUse"><stop offset="0" stop-color="#f2c314"/><stop offset="1" stop-color="#fc3832"/></linearGradient><mask id="7fnve" width="2" height="2" x="-1" y="-1"><path fill="#fff" d="M17 7h817v816H17z"/><path d="M125.26 155.26c0-22.091 17.909-40 40-40h520c22.091 0 40 17.909 40 40v520c0 22.091-17.909 40-40 40h-520c-22.091 0-40-17.909-40-40z"/></mask><filter id="7fnvd" width="869" height="876" x="-9" y="-19" filterUnits="userSpaceOnUse"><feOffset dy="8" in="SourceGraphic" result="FeOffset1042Out"/><feGaussianBlur in="FeOffset1042Out" result="FeGaussianBlur1043Out" stdDeviation="6.4 6.4"/></filter><linearGradient id="7fnvf" x1="125.26" x2="725.26" y1="115.26" y2="715.26" gradientUnits="userSpaceOnUse"><stop offset="0" stop-color="#9c09db"/><stop offset="1" stop-color="#1c0fd7"/></linearGradient></defs><g><g opacity=".9" transform="rotate(65 426 416)"><g filter="url(#7fnva)"><path fill="none" d="M126.68 155.68c0-22.091 17.909-40 40-40h520c22.091 0 40 17.909 40 40v520c0 22.091-17.909 40-40 40h-520c-22.091 0-40-17.909-40-40z" mask="url(&quot;#7fnvb&quot;)"/><path fill-opacity=".15" d="M126.68 155.68c0-22.091 17.909-40 40-40h520c22.091 0 40 17.909 40 40v520c0 22.091-17.909 40-40 40h-520c-22.091 0-40-17.909-40-40z"/></g><path fill="url(#7fnvc)" d="M126.68 155.68c0-22.091 17.909-40 40-40h520c22.091 0 40 17.909 40 40v520c0 22.091-17.909 40-40 40h-520c-22.091 0-40-17.909-40-40z"/></g><g opacity=".9" transform="rotate(45 425.5 415)"><g filter="url(#7fnvd)"><path fill="none" d="M125.26 155.26c0-22.091 17.909-40 40-40h520c22.091 0 40 17.909 40 40v520c0 22.091-17.909 40-40 40h-520c-22.091 0-40-17.909-40-40z" mask="url(&quot;#7fnve&quot;)"/><path fill-opacity=".2" d="M125.26 155.26c0-22.091 17.909-40 40-40h520c22.091 0 40 17.909 40 40v520c0 22.091-17.909 40-40 40h-520c-22.091 0-40-17.909-40-40z"/></g><path fill="url(#7fnvf)" d="M125.26 155.26c0-22.091 17.909-40 40-40h520c22.091 0 40 17.909 40 40v520c0 22.091-17.909 40-40 40h-520c-22.091 0-40-17.909-40-40z"/></g></g></svg>